<svg width="22" height="20" fill="none" xmlns="http://www.w3.org/2000/svg"><g clip-path="url(#a)"><path d="M3.938 20c-.931 0-1.757-.35-2.48-1.049-.764-.74-1.145-1.636-1.145-2.691 0-1.056.381-1.953 1.145-2.692L13.438 1.27A4.253 4.253 0 0 1 15.552.1a4.544 4.544 0 0 1 2.427.141c.82.27 1.577.733 2.271 1.392a5.6 5.6 0 0 1 .615.756c.187.275.34.564.458.867a5.51 5.51 0 0 1 .365 1.966c-.028 1.424-.528 2.614-1.5 3.568l-9.063 9.314a.636.636 0 0 1-.458.212.633.633 0 0 1-.47-.171.625.625 0 0 1-.207-.454.635.635 0 0 1 .177-.474l9.062-9.314c.736-.726 1.111-1.627 1.125-2.702.014-1.075-.34-1.956-1.062-2.641a4.637 4.637 0 0 0-1.48-1.008 3.329 3.329 0 0 0-1.75-.222c-.625.08-1.18.356-1.666.827L2.416 14.455c-.513.498-.77 1.096-.77 1.795 0 .698.257 1.297.77 1.794.237.228.494.4.772.514.277.114.569.158.874.131.612-.027 1.181-.302 1.709-.827l9.52-9.798a2.909 2.909 0 0 0 .396-.474c.07-.1.126-.208.167-.322.042-.115.07-.229.084-.343a.648.648 0 0 0-.063-.353 1.145 1.145 0 0 0-.25-.343c-.264-.268-.52-.39-.77-.363-.265.027-.563.195-.897.504l-7.166 7.38a.708.708 0 0 1-.292.17.662.662 0 0 1-.646-.15.567.567 0 0 1-.208-.444c0-.175.062-.33.187-.464L13 5.463c.57-.537 1.146-.833 1.73-.887.666-.054 1.277.188 1.832.726.528.497.76 1.082.698 1.754-.062.672-.399 1.304-1.01 1.895L6.73 18.77c-.779.752-1.647 1.156-2.605 1.21a.5.5 0 0 0-.094.01.492.492 0 0 1-.093.01Z" fill="#CDCDCD"/></g><defs><clipPath id="a"><path fill="#fff" d="M0 0h22v20H0z"/></clipPath></defs></svg>