<svg aria-hidden="true" style="width:0;height:0;position:absolute;overflow:hidden" xmlns="http://www.w3.org/2000/svg"><defs><symbol id="icon-polygon-up-black" viewBox="0 0 32 32"><path d="M14.623 8.064a1.882 1.882 0 0 1 2.753 0l12.787 13.711c1.122 1.203.269 3.166-1.377 3.166H3.212c-1.646 0-2.499-1.963-1.377-3.166L14.622 8.064z"/></symbol><symbol id="icon-polygon-blue" viewBox="0 0 32 32"><path fill="#008cef" style="fill:var(--color1,#008cef)" d="m16 11.2 13.856 9.6H2.143l13.856-9.6z"/></symbol><symbol id="icon-emoji" viewBox="0 0 32 32"><path d="M0 0h32v32H0V0z"/></symbol><symbol id="icon-play-button" viewBox="0 0 32 32"><path fill="#fff" style="fill:var(--color2,#fff)" opacity=".8" d="M30.685 16c0 8.11-6.575 14.685-14.685 14.685S1.315 24.11 1.315 16 7.89 1.315 16 1.315 30.685 7.89 30.685 16z"/><path fill="#487996" style="fill:var(--color3,#487996)" d="M21.636 15.62a.438.438 0 0 1 0 .759l-8.125 4.691a.439.439 0 0 1-.658-.38v-9.382a.44.44 0 0 1 .658-.38l8.125 4.691z"/></symbol><symbol id="icon-paper-clip" viewBox="0 0 32 32"><path fill="#cdcdcd" style="fill:var(--color4,#cdcdcd)" d="M6.706 29.913c-1.264 0-2.386-.486-3.367-1.459-1.038-1.028-1.556-2.277-1.556-3.745s.519-2.716 1.556-3.745l16.27-17.111c.83-.841 1.787-1.384 2.872-1.627s2.183-.178 3.296.196 2.141 1.019 3.084 1.936c.302.318.58.669.835 1.052s.462.785.622 1.206a7.822 7.822 0 0 1 .495 2.735c-.038 1.982-.717 3.637-2.037 4.965L16.468 27.275c-.17.187-.377.285-.622.295s-.457-.07-.637-.238c-.179-.168-.274-.379-.283-.631s.071-.472.241-.659l12.308-12.959c1-1.01 1.509-2.263 1.528-3.759s-.462-2.721-1.443-3.675c-.604-.617-1.273-1.085-2.009-1.403s-1.528-.421-2.377-.309c-.849.112-1.603.496-2.264 1.15L4.64 22.198c-.698.692-1.047 1.524-1.047 2.497s.349 1.805 1.047 2.497c.321.318.67.556 1.047.715s.773.22 1.188.182c.83-.037 1.603-.421 2.32-1.15l12.931-13.633a4.181 4.181 0 0 0 .538-.66c.094-.14.17-.29.226-.449s.094-.318.113-.477c.019-.159-.009-.323-.085-.491s-.189-.327-.339-.477c-.358-.374-.707-.542-1.047-.505-.358.037-.764.271-1.217.701l-9.734 10.266c-.113.112-.245.192-.396.238a.89.89 0 0 1-.877-.21c-.189-.168-.283-.374-.283-.617s.085-.458.255-.645l9.734-10.295c.773-.748 1.556-1.159 2.349-1.234.905-.075 1.735.262 2.49 1.01.717.692 1.033 1.505.948 2.44s-.542 1.814-1.372 2.637L10.498 28.199c-1.056 1.047-2.235 1.608-3.537 1.683-.038 0-.08.005-.127.014s-.09.014-.127.014z"/></symbol><symbol id="icon-polygon-down-black" viewBox="0 0 32 32"><path d="M17.673 25.212a2.285 2.285 0 0 1-3.563 0L.97 8.861C-.232 7.365.833 5.143 2.752 5.143h26.281c1.919 0 2.984 2.222 1.782 3.718l-13.14 16.351z"/></symbol><symbol id="icon-arrow" viewBox="0 0 32 32"><path d="M16.145 3.571a.915.915 0 0 0-.909.914v21.561l-5.721-5.754a.906.906 0 0 0-1.288 0 .917.917 0 0 0 0 1.294l7.274 7.313a.91.91 0 0 0 .992.199.91.91 0 0 0 .295-.199l7.274-7.313a.933.933 0 0 0 .266-.647.915.915 0 0 0-.911-.915.906.906 0 0 0-.644.268l-5.721 5.754V4.485a.908.908 0 0 0-.909-.914z"/></symbol><symbol id="icon-call" viewBox="0 0 32 32"><path fill="#008cef" style="fill:var(--color1,#008cef)" d="m25.64 20.347-3.387-.387a2.647 2.647 0 0 0-2.187.76l-2.453 2.453a20.062 20.062 0 0 1-8.787-8.787l2.467-2.467a2.656 2.656 0 0 0 .76-2.187l-.387-3.36c-.076-.65-.388-1.25-.877-1.686s-1.121-.675-1.776-.674H6.706c-1.507 0-2.76 1.253-2.667 2.76.707 11.387 9.813 20.48 21.187 21.187 1.507.093 2.76-1.16 2.76-2.666v-2.307c.013-1.347-1-2.48-2.347-2.64z"/></symbol><symbol id="icon-menu-close" viewBox="0 0 32 32"><path fill="#487996" style="fill:var(--color3,#487996)" d="m18.613 15.912 12.96-12.96A1.78 1.78 0 0 0 31.48.539a1.775 1.775 0 0 0-2.414-.093l-12.96 12.96L3.146.428A1.78 1.78 0 0 0 .733.521 1.775 1.775 0 0 0 .64 2.934L13.6 15.912.622 28.872a1.785 1.785 0 0 0-.62 1.282 1.79 1.79 0 0 0 .519 1.326 1.767 1.767 0 0 0 1.326.519 1.785 1.785 0 0 0 1.282-.62l12.978-12.96 12.96 12.96a1.78 1.78 0 0 0 2.414-.093 1.775 1.775 0 0 0 .093-2.413l-12.96-12.96z"/></symbol><symbol id="icon-burger-menu" viewBox="0 0 32 32"><path d="M32 9a1 1 0 0 1-1 1H1a1 1 0 0 1 0-2h30a1 1 0 0 1 1 1zm0 16a1 1 0 0 1-1 1H1a1 1 0 0 1 0-2h30a1 1 0 0 1 1 1zm0-8.008a.992.992 0 0 1-.992.992H.992a.992.992 0 1 1 0-1.984h30.016c.548 0 .992.444.992.992z"/></symbol><symbol id="icon-check" viewBox="0 0 42 32"><path fill="#fff" style="fill:var(--color2,#fff);stroke:var(--color2,#fff)" stroke="#fff" stroke-width=".64" d="m6.263 15.205-.22-.21-3.307 3.132 11.651 11.114L38.864 5.89l-3.285-3.134-21.192 20.197-8.124-7.75z"/></symbol><symbol id="icon-phone-button" viewBox="0 0 32 32"><path fill="#008cef" style="fill:var(--color1,#008cef)" d="m25.64 20.347-3.387-.387a2.647 2.647 0 0 0-2.187.76l-2.453 2.453a20.062 20.062 0 0 1-8.787-8.787l2.467-2.467a2.656 2.656 0 0 0 .76-2.187l-.387-3.36c-.076-.65-.388-1.25-.877-1.686s-1.121-.675-1.776-.674H6.706c-1.507 0-2.76 1.253-2.667 2.76.707 11.387 9.813 20.48 21.187 21.187 1.507.093 2.76-1.16 2.76-2.667v-2.307c.013-1.347-1-2.48-2.347-2.64z"/></symbol><symbol id="icon-triangle" viewBox="0 0 32 32"><path d="M32.001 28.905H0l16-25.81 16 25.81zm-29.63-1.32H29.63L16.001 5.6 2.372 27.585z"/></symbol></defs></svg>