<svg aria-hidden="true" style="position: absolute; width: 0; height: 0; overflow: hidden;" version="1.1"
    xmlns="http://www.w3.org/2000/svg"
    xmlns:xlink="http://www.w3.org/1999/xlink">
    <defs>
        <symbol id="icon-polygon-up-black" viewBox="0 0 32 32">
            <path d="M14.623 8.064c0.744-0.798 2.009-0.798 2.753 0l12.787 13.711c1.122 1.203 0.269 3.166-1.377 3.166h-25.574c-1.646 0-2.499-1.963-1.377-3.166l12.787-13.711z"></path>
        </symbol>
        <symbol id="icon-polygon-blue" viewBox="0 0 32 32">
            <path fill="#008cef" style="fill: var(--color1, #008cef)" d="M16 11.2l13.856 9.6h-27.713l13.856-9.6z"></path>
        </symbol>
        <symbol id="icon-emoji" viewBox="0 0 32 32">
            <path d="M0 0h32v32h-32v-32z"></path>
        </symbol>
        <symbol id="icon-play-button" viewBox="0 0 32 32">
            <path fill="#fff" style="fill: var(--color2, #fff)" opacity="0.8" d="M30.685 16c0 8.11-6.575 14.685-14.685 14.685s-14.685-6.575-14.685-14.685c0-8.11 6.575-14.685 14.685-14.685s14.685 6.575 14.685 14.685z"></path>
            <path fill="#487996" style="fill: var(--color3, #487996)" d="M21.636 15.62c0.292 0.169 0.292 0.591 0 0.759l-8.125 4.691c-0.292 0.169-0.658-0.042-0.658-0.38v-9.382c0-0.337 0.365-0.548 0.658-0.38l8.125 4.691z"></path>
        </symbol>
        <symbol id="icon-paper-clip" viewBox="0 0 32 32">
            <path fill="#cdcdcd" style="fill: var(--color4, #cdcdcd)" d="M6.706 29.913c-1.264 0-2.386-0.486-3.367-1.459-1.038-1.028-1.556-2.277-1.556-3.745s0.519-2.716 1.556-3.745l16.27-17.111c0.83-0.841 1.787-1.384 2.872-1.627s2.183-0.178 3.296 0.196c1.113 0.374 2.141 1.019 3.084 1.936 0.302 0.318 0.58 0.669 0.835 1.052s0.462 0.785 0.622 1.206c0.16 0.421 0.283 0.865 0.368 1.332s0.127 0.935 0.127 1.403c-0.038 1.982-0.717 3.637-2.037 4.965l-12.308 12.959c-0.17 0.187-0.377 0.285-0.622 0.295s-0.457-0.070-0.637-0.238c-0.179-0.168-0.274-0.379-0.283-0.631s0.071-0.472 0.241-0.659l12.308-12.959c1-1.010 1.509-2.263 1.528-3.759s-0.462-2.721-1.443-3.675c-0.604-0.617-1.273-1.085-2.009-1.403s-1.528-0.421-2.377-0.309c-0.849 0.112-1.603 0.496-2.264 1.15l-16.27 17.111c-0.698 0.692-1.047 1.524-1.047 2.497s0.349 1.805 1.047 2.497c0.321 0.318 0.67 0.556 1.047 0.715s0.773 0.22 1.188 0.182c0.83-0.037 1.603-0.421 2.32-1.15l12.931-13.633c0.094-0.094 0.184-0.192 0.269-0.295s0.174-0.224 0.269-0.365c0.094-0.14 0.17-0.29 0.226-0.449s0.094-0.318 0.113-0.477c0.019-0.159-0.009-0.323-0.085-0.491s-0.189-0.327-0.339-0.477c-0.358-0.374-0.707-0.542-1.047-0.505-0.358 0.037-0.764 0.271-1.217 0.701l-9.734 10.266c-0.113 0.112-0.245 0.192-0.396 0.238s-0.307 0.051-0.467 0.014c-0.16-0.037-0.297-0.112-0.41-0.224-0.189-0.168-0.283-0.374-0.283-0.617s0.085-0.458 0.255-0.645l9.734-10.295c0.773-0.748 1.556-1.159 2.349-1.234 0.905-0.075 1.735 0.262 2.49 1.010 0.717 0.692 1.033 1.505 0.948 2.44s-0.542 1.814-1.372 2.637l-12.931 13.661c-1.056 1.047-2.235 1.608-3.537 1.683-0.038 0-0.080 0.005-0.127 0.014s-0.090 0.014-0.127 0.014z"></path>
        </symbol>
        <symbol id="icon-polygon-down-black" viewBox="0 0 32 32">
            <path d="M17.673 25.212c-0.915 1.139-2.648 1.139-3.563 0l-13.14-16.351c-1.202-1.496-0.137-3.718 1.782-3.718h26.281c1.919 0 2.984 2.222 1.782 3.718l-13.14 16.351z"></path>
        </symbol>
        <symbol id="icon-arrow" viewBox="0 0 32 32">
            <path d="M16.145 3.571c-0.241 0-0.472 0.096-0.643 0.268s-0.266 0.404-0.266 0.646v21.561l-5.721-5.754c-0.171-0.172-0.402-0.268-0.644-0.268s-0.473 0.096-0.644 0.268c-0.171 0.172-0.267 0.404-0.267 0.647s0.096 0.476 0.267 0.647l7.274 7.313c0.084 0.085 0.185 0.153 0.295 0.199s0.229 0.070 0.348 0.070 0.238-0.024 0.349-0.070c0.11-0.046 0.211-0.114 0.295-0.199l7.274-7.313c0.085-0.085 0.152-0.186 0.197-0.297s0.069-0.23 0.069-0.35c0-0.243-0.096-0.476-0.267-0.647s-0.402-0.268-0.644-0.268-0.473 0.096-0.644 0.268l-5.721 5.754v-21.561c0-0.242-0.096-0.475-0.266-0.646s-0.402-0.268-0.643-0.268z"></path>
        </symbol>
        <symbol id="icon-call" viewBox="0 0 32 32">
            <path fill="#008cef" style="fill: var(--color1, #008cef)" d="M25.64 20.347l-3.387-0.387c-0.398-0.047-0.802-0.003-1.181 0.129s-0.723 0.347-1.006 0.631l-2.453 2.453c-3.785-1.925-6.862-5.002-8.787-8.787l2.467-2.467c0.573-0.573 0.853-1.373 0.76-2.187l-0.387-3.36c-0.076-0.65-0.388-1.25-0.877-1.686s-1.121-0.675-1.776-0.674h-2.307c-1.507 0-2.76 1.253-2.667 2.76 0.707 11.387 9.813 20.48 21.187 21.187 1.507 0.093 2.76-1.16 2.76-2.666v-2.307c0.013-1.347-1-2.48-2.347-2.64z"></path>
        </symbol>
        <symbol id="icon-menu-close" viewBox="0 0 32 32">
            <path fill="#487996" style="fill: var(--color3, #487996)" d="M18.613 15.912l12.96-12.96c0.291-0.34 0.443-0.778 0.426-1.225s-0.203-0.872-0.519-1.188c-0.317-0.317-0.741-0.502-1.189-0.519s-0.885 0.135-1.225 0.426l-12.96 12.96-12.96-12.978c-0.34-0.291-0.778-0.443-1.225-0.426s-0.872 0.203-1.188 0.519c-0.317 0.317-0.502 0.741-0.519 1.188s0.135 0.885 0.426 1.225l12.96 12.978-12.978 12.96c-0.186 0.159-0.337 0.356-0.444 0.576s-0.167 0.461-0.176 0.706c-0.009 0.245 0.032 0.489 0.121 0.717s0.225 0.435 0.398 0.609c0.173 0.173 0.38 0.309 0.609 0.398s0.472 0.131 0.717 0.121 0.485-0.069 0.706-0.176c0.221-0.107 0.417-0.258 0.576-0.444l12.978-12.96 12.96 12.96c0.34 0.291 0.778 0.443 1.225 0.426s0.872-0.203 1.189-0.519c0.317-0.317 0.502-0.741 0.519-1.188s-0.135-0.885-0.426-1.225l-12.96-12.96z"></path>
        </symbol>
        <symbol id="icon-burger-menu" viewBox="0 0 32 32">
            <path d="M32 9c0 0.552-0.448 1-1 1h-30c-0.552 0-1-0.448-1-1s0.448-1 1-1h30c0.552 0 1 0.448 1 1zM32 25c0 0.552-0.448 1-1 1h-30c-0.552 0-1-0.448-1-1s0.448-1 1-1h30c0.552 0 1 0.448 1 1zM32 16.992c0 0.548-0.444 0.992-0.992 0.992h-30.016c-0.548 0-0.992-0.444-0.992-0.992s0.444-0.992 0.992-0.992h30.016c0.548 0 0.992 0.444 0.992 0.992z"></path>
        </symbol>
        <symbol id="icon-check" viewBox="0 0 42 32">
            <path fill="#fff" style="fill: var(--color2, #fff); stroke: var(--color2, #fff)" stroke="#fff" stroke-linejoin="miter" stroke-linecap="butt" stroke-miterlimit="4" stroke-width="0.64" d="M6.263 15.205l-0.22-0.21-3.307 3.132 11.651 11.114 24.477-23.351-3.285-3.134-21.192 20.197-8.124-7.75z"></path>
        </symbol>
        <symbol id="icon-phone-button" viewBox="0 0 32 32">
            <path fill="#008cef" style="fill: var(--color1, #008cef)" d="M25.64 20.347l-3.387-0.387c-0.398-0.047-0.802-0.003-1.181 0.129s-0.723 0.347-1.006 0.631l-2.453 2.453c-3.785-1.925-6.862-5.002-8.787-8.787l2.467-2.467c0.573-0.573 0.853-1.373 0.76-2.187l-0.387-3.36c-0.076-0.65-0.388-1.25-0.877-1.686s-1.121-0.675-1.776-0.674h-2.307c-1.507 0-2.76 1.253-2.667 2.76 0.707 11.387 9.813 20.48 21.187 21.187 1.507 0.093 2.76-1.16 2.76-2.667v-2.307c0.013-1.347-1-2.48-2.347-2.64z"></path>
        </symbol>
        <symbol id="icon-triangle" viewBox="0 0 32 32">
            <path d="M32.001 28.905h-32.001l16-25.81 16 25.81zM2.371 27.585h27.259l-13.629-21.985-13.629 21.985z"></path>
        </symbol>
    </defs>
</svg>
